# xmcd
#
# Track frame offsets:
#	150
#	31616
#	52683
#	114101
#	166281
#	188705
#
# Disc length: 2822 seconds
#
# Revision: 0
# Processed by: cddbd v1.5.2PL0 Copyright (c) Steve Scherf et al.
# Submitted via: audiograbber 1.83.01
#
DISCID=350b0406
DTITLE=Grateful Dead - 76-06-03 Paramount Theatre, Portland OR
DYEAR=1900
DGENRE=
TTITLE0=Around and Around
TTITLE1=Help On The Way
TTITLE2=Slipknot!
TTITLE3=Franklin's Tower
TTITLE4=One More Saturday Night
TTITLE5=The Wheel
EXTD=
EXTT0=
EXTT1=
EXTT2=
EXTT3=
EXTT4=
EXTT5=
PLAYORDER=
